<?xml version="1.0" encoding="utf-8"?>
<!-- Generator: Adobe Illustrator 19.2.1, SVG Export Plug-In . SVG Version: 6.00 Build 0)  -->
<svg version="1.1" id="layer" xmlns="http://www.w3.org/2000/svg" xmlns:xlink="http://www.w3.org/1999/xlink" x="0px" y="0px"
	 viewBox="0 0 652 652" style="enable-background:new 0 0 652 652;" xml:space="preserve">
<style type="text/css">
	.st0{fill:#333333;}
</style>
<path class="st0" d="M209.7,338.9h13.5l-6.7-17.3L209.7,338.9z M231.8,361.2l-4.6-11.9h-21.4l-4.6,11.9h-11.4l21.6-53.4h10.6
	l21.6,53.4H231.8z"/>
<g>
	<path class="st0" d="M175.5,307.8h-9.2h-12h-8.1c-5,0-9.1,4.2-9.2,9.5h0v0.1c0,0.1,0,0.1,0,0.2v19.1c0,0.1,0,0.2,0,0.2v24.3h11.2
		v-20.6h24.2v-10.7h-24.2v-11.4h27.4L175.5,307.8l-0.5,0C175.4,307.8,175.5,307.8,175.5,307.8"/>
	<path class="st0" d="M332.5,318.7v-10.8l0,0l0,0h-1.9c-5.1,0-9.2,4.4-9.2,9.7v1c0,0,0,0,0,0v0.1v42.5h36.4v-10.6h-25.2V318.7z"/>
	<path class="st0" d="M386.2,339.5h23.9v-10.4h-23.9v-10.8h27.2v-10.4h-9l0,0h-12h-8.1c-5.1,0-9.2,4.4-9.2,9.7v0.8c0,0,0,0,0,0v42.8
		h38.6v-10.4h-27.5V339.5z"/>
	<path class="st0" d="M605.4,329.4c-8.5-2.3-10.6-3.4-10.6-6.8v-0.1c0-2.5,2.2-4.5,6.3-4.5c4.1,0,8.4,1.9,12.8,5.1l5.6-8.6
		c-5-4.2-11.1-6.6-18.3-6.6c-10.1,0-17.2,6.2-17.2,15.6v0.1c0,10.3,6.4,13.2,16.3,15.9c8.3,2.2,10,3.7,10,6.6v0.2
		c0,3-2.7,4.8-7.1,4.8c-5.6,0-10.3-2.4-14.7-6.3l-6.4,8.1c5.9,5.6,13.4,8.3,20.9,8.3c10.6,0,18.1-5.8,18.1-16.1v-0.2
		C621,335.9,615.4,332.2,605.4,329.4"/>
	<path class="st0" d="M544.7,350.7c-8.4,0-14.2-7.4-14.2-16.2v-0.2c0-8.8,6-16.1,14.2-16.1c4.9,0,8.8,2.2,12.6,5.8l6.8-8.3
		c-4.5-4.7-10.1-8-19.3-8c-15.1,0-25.6,12-25.6,26.7v0.2c0,14.8,10.7,26.5,25.1,26.5c9.5,0,15.1-3.6,20.1-9.2l-6.8-7.3
		C553.7,348.4,550.3,350.7,544.7,350.7"/>
	<path class="st0" d="M292.9,345.1c0,4-3,5.8-7.9,5.8h-13.2v-11.7h12.9c5.7,0,8.2,2.2,8.2,5.8V345.1z M271.7,318.1h11
		c4.7,0,7.3,2,7.3,5.5v0.2c0,3.9-3.1,5.6-8,5.6h-10.3V318.1z M294.5,333.3c3.6-2.1,6.7-5.5,6.7-11.5v-0.1c0-8.3-6.3-13.7-16.5-13.8
		l0,0h-0.2h-6.2h-8.1h0c-5.1,0-9.2,4.4-9.2,9.7v0.3l0,0v43.4H285c11.5,0,19-4.9,19-14.6v-0.2C304,339.3,300.3,335.7,294.5,333.3"/>
	<path class="st0" d="M469.7,307.8h-9.2h-12h-8.1c-5.1,0-9.2,4.4-9.2,9.7h0v1.1h15.4v42.5h11.2v-42.5h15.4v-10.8H469.7z"/>
	<path class="st0" d="M490.4,317.6v19.1c0,0.1,0,0.1,0,0.2v24.3h11.2v-42.5v-10.8l-1.9,0C494.6,307.8,490.4,312.2,490.4,317.6"/>
	<path class="st0" d="M216.4,321.6l6.8,17.3h-13.5L216.4,321.6z M211.3,307.9l-21.6,53.4h11.4l4.6-11.9h21.4l4.6,11.9h11.7
		l-21.6-53.4H211.3z"/>
	<path class="st0" d="M175.5,307.9h-9.2h-12h-8.1c-5,0-9.1,4.2-9.2,9.5h0v0.1c0,0.1,0,0.1,0,0.2v19.1c0,0.1,0,0.2,0,0.2v24.3h11.2
		v-20.6h24.2v-10.7h-24.2v-11.4h27.4L175.5,307.9l-0.5,0C175.4,307.9,175.5,307.9,175.5,307.9"/>
	<path class="st0" d="M332.5,318.7v-10.8l0,0l0,0h-1.9c-5.1,0-9.2,4.4-9.2,9.7v1c0,0,0,0,0,0v0.1v42.5h36.4v-10.6h-25.2V318.7z"/>
	<path class="st0" d="M386.2,339.6h23.9v-10.4h-23.9v-10.8h27.2v-10.4h-9l0,0h-12h-8.1c-5.1,0-9.2,4.4-9.2,9.7v0.8c0,0,0,0,0,0v42.8
		h38.6v-10.4h-27.5V339.6z"/>
	<path class="st0" d="M605.4,329.4c-8.5-2.3-10.6-3.4-10.6-6.8v-0.1c0-2.5,2.2-4.5,6.3-4.5c4.1,0,8.4,1.9,12.8,5.1l5.6-8.6
		c-5-4.2-11.1-6.6-18.3-6.6c-10.1,0-17.2,6.2-17.2,15.6v0.1c0,10.3,6.4,13.2,16.3,15.9c8.3,2.2,10,3.7,10,6.6v0.2
		c0,3-2.7,4.8-7.1,4.8c-5.6,0-10.3-2.4-14.7-6.3l-6.4,8.1c5.9,5.6,13.4,8.3,20.9,8.3c10.6,0,18.1-5.8,18.1-16.1V345
		C621,336,615.4,332.2,605.4,329.4"/>
	<path class="st0" d="M544.7,350.8c-8.4,0-14.2-7.4-14.2-16.2v-0.2c0-8.8,6-16.1,14.2-16.1c4.9,0,8.8,2.2,12.6,5.8l6.8-8.3
		c-4.5-4.7-10.1-8-19.3-8c-15.1,0-25.6,12-25.6,26.7v0.2c0,14.8,10.7,26.5,25.1,26.5c9.5,0,15.1-3.6,20.1-9.2l-6.8-7.3
		C553.7,348.4,550.3,350.8,544.7,350.8"/>
	<path class="st0" d="M292.9,345.2c0,3.9-3,5.8-7.9,5.8h-13.2v-11.7h12.9c5.7,0,8.2,2.2,8.2,5.8V345.2z M271.7,318.2h11
		c4.7,0,7.3,2,7.3,5.5v0.2c0,3.9-3.1,5.6-8,5.6h-10.3V318.2z M294.5,333.3c3.6-2.1,6.7-5.5,6.7-11.5v-0.1c0-8.3-6.3-13.7-16.5-13.8
		l0,0h-0.2h-6.2h-8.1h0c-5.1,0-9.2,4.4-9.2,9.7v0.3l0,0v43.4H285c11.5,0,19-4.9,19-14.6v-0.2C304,339.3,300.3,335.7,294.5,333.3"/>
	<path class="st0" d="M469.7,307.9h-9.2h-12h-8.1c-5.1,0-9.2,4.4-9.2,9.7h0v1.1h15.4v42.5h11.2v-42.5h15.4v-10.8H469.7z"/>
	<path class="st0" d="M490.4,317.6v19.1c0,0.1,0,0.1,0,0.2v24.3h11.2v-42.5v-10.8l-1.9,0C494.6,307.9,490.4,312.2,490.4,317.6"/>
	<path class="st0" d="M107.2,286.1c-0.8,2.6-2.3,6.1-5,8.9c0,0-3.4,4.9-11.6,8.3c0,0-5.2,2.3-14.4,3.2c0,0-7.8,0.9-19.5,0.7
		c-0.9,0-2.6-0.1-2.6-0.1h-0.1C42.5,307,37.7,309,37.7,309c-5.7,2-9.3,8.2-11.5,13.6v0c-0.1,0.2-2.8,7-5.1,19.3c0,0,0,0,0,0.1v-27.8
		c0-1.4,0.1-2.9,0.2-4.3c1-8.8,6-16.3,13.1-20.4c1.5-1,8.3-4,19.2-4.1c3.3,0,21.7-0.2,30-0.5c19.1-0.7,24.6-3.4,24.6-3.4
		C107.7,284.6,107.2,286.1,107.2,286.1 M79,328.5c-11.2,4.9-31.5,4.2-35.3,5c-3.8,0.7-13-0.3-19.7,14c1.4-1.8,3.6-2.9,6-2.9
		c4.3,0,7.8,3.7,7.8,8.2c0,4.5-3.5,8.2-7.8,8.2c-3.2,0-5.9-2-7.1-4.8c0,0,0,0,0,0c-0.1-0.3-0.3-0.7-0.4-1c0-0.1-0.1-0.2-0.1-0.4
		c-0.1-0.3-0.1-0.5-0.1-0.8c-0.1-0.3-0.1-0.7-0.1-1.1v0v0c0-0.3,0-0.6,0-0.9c0.1-1,0.2-2.1,0.3-3.1v-0.1c0-0.1,0-0.2,0-0.3
		c0.9-6.3,2.9-12.8,2.9-12.8l0,0c1.1-3.8,1.7-5.2,1.8-5.3v0c2.2-5.4,5.9-11.6,11.6-13.6c0,0,4.8-2,16.4-1.9h0.1c0,0,0.1,0,0.1,0
		c0.8,0,1.6,0,2.5,0.1c11.7,0.2,19.5-0.7,19.5-0.7c9.2-0.8,14.7-2.6,19.2-5.7C95.7,312.3,92,322.8,79,328.5"/>
</g>
</svg>
